Coordinates
version=1
nRows=17
nColumns=24
inDegrees=yes

Units are S.I. units (second, meters, Newtons, ...)
Angles are in degrees.

endheader
time	pelvis_tilt	pelvis_list	pelvis_rotation	pelvis_tx	pelvis_ty	pelvis_tz	hip_flexion_r	hip_adduction_r	hip_rotation_r	knee_angle_r	ankle_angle_r	subtalar_angle_r	mtp_angle_r	hip_flexion_l	hip_adduction_l	hip_rotation_l	knee_angle_l	ankle_angle_l	subtalar_angle_l	mtp_angle_l	lumbar_extension	lumbar_bending	lumbar_rotation
      3.33500000	     -5.12236495	      3.07895433	      4.31315582	     -0.25662803	     -0.03320059	     -0.15531918	     35.73631325	     -2.55608731	     -2.71882260	    -18.42377386	      1.46213338	     10.68154580	     12.08426341	     -8.22485510	      6.68294053	     -6.51921354	    -25.14918022	     12.25501473	     22.00104347	     -4.87687899	      4.16971655	     -5.68279445	    -11.27268827
      3.34000000	     -5.14626154	      2.76629820	      4.39584311	     -0.24888022	     -0.03342888	     -0.15480105	     35.55420623	     -2.11459185	     -2.45687803	    -18.93188769	      0.65099120	     10.41633226	     12.75829268	     -8.12233533	      6.07313419	     -6.72736631	    -25.96224871	     10.36162095	     22.05756934	     -0.64337597	      4.38585965	     -5.32653330	    -11.29764447
      3.34500000	     -5.16805428	      2.46947102	      4.37830035	     -0.24122506	     -0.03363087	     -0.15404240	     35.43619602	     -1.60568413	     -2.09342277	    -19.54201447	     -0.10055090	     10.17770666	     12.77053671	     -7.93445760	      5.43357579	     -7.19178908	    -26.93727694	      8.55121148	     22.31721619	      2.79839373	      4.58100963	     -4.99388555	    -11.18823049
      3.35000000	     -5.21871149	      2.11215490	      4.31596755	     -0.23347601	     -0.03377370	     -0.15323846	     35.31762139	     -0.99307518	     -1.54154123	    -20.07304397	     -0.98995969	      9.78139913	     12.81115652	     -7.67983537	      4.72082276	     -7.66459908	    -27.94801653	      6.61888476	     22.57690273	      6.14633823	      4.82883460	     -4.58577513	    -11.04584260
      3.35500000	     -5.28850749	      1.74511799	      4.23454595	     -0.22577700	     -0.03388192	     -0.15235953	     35.24894536	     -0.35057088	     -0.98646654	    -20.65328123	     -1.84968017	      9.38034146	     12.54159369	     -7.33859534	      3.96904045	     -8.20473066	    -29.01506038	      4.46444313	     22.79598394	      9.72825253	      5.08961877	     -4.17894841	    -10.86879496
      3.36000000	     -5.36105097	      1.39556295	      4.07904575	     -0.21808294	     -0.03396747	     -0.15139031	     35.20482250	      0.34308966	     -0.27225818	    -21.26999982	     -2.73995268	      8.79400953	     12.10120411	     -6.95821404	      3.24104107	     -8.73948686	    -30.12680133	      2.17712766	     22.90499015	     12.86272081	      5.35412112	     -3.77065974	    -10.57360610
      3.36500000	     -5.46788959	      0.98236344	      4.03228107	     -0.21043841	     -0.03407088	     -0.15055485	     35.19958165	      1.00649789	      0.22784855	    -21.92792686	     -3.42755629	      8.50707944	     11.64622814	     -6.44623451	      2.40226890	     -9.21086339	    -31.30853399	     -0.35981215	     22.97987561	     16.73147373	      5.64128439	     -3.31651074	    -10.45665431
      3.37000000	     -5.54075761	      0.59745495	      3.87675734	     -0.20274246	     -0.03415301	     -0.14959617	     35.15887372	      1.73576014	      0.91587523	    -22.59982113	     -4.12376421	      7.98970956	     11.09616289	     -5.95393613	      1.60674445	     -9.70519570	    -32.52264239	     -3.00343802	     22.90109332	     19.78374677	      5.90488430	     -2.87465131	    -10.18566334
      3.37500000	     -5.68052332	      0.19061548	      3.75119159	     -0.19504679	     -0.03432749	     -0.14867583	     35.18450123	      2.46145331	      1.53830475	    -23.28456533	     -4.71325002	      7.48191574	     10.58246340	     -5.31404146	      0.78207757	    -10.12147471	    -33.83347528	     -5.75590745	     22.70926721	     22.50574379	      6.24210248	     -2.41801019	     -9.96142499
      3.38000000	     -5.77011026	     -0.19317209	      3.67700810	     -0.18745874	     -0.03443685	     -0.14785322	     35.13621642	      3.13596682	      2.10493690	    -23.95062222	     -5.22726260	      6.87046425	     10.09592289	     -4.66395914	      0.00728456	    -10.35941412	    -35.17887794	     -8.69718940	     22.19472909	     24.80211569	      6.49779550	     -1.99072106	     -9.81365348
      3.38500000	     -5.92189534	     -0.62503057	      3.51378089	     -0.17978036	     -0.03471824	     -0.14691618	     35.13683768	      3.90959707	      2.71843947	    -24.58354796	     -5.68607283	      6.19662620	      9.71927112	     -3.89437699	     -0.82714829	    -10.67882821	    -36.66584512	    -11.49366529	     21.71174543	     26.00971666	      6.85100812	     -1.50196348	     -9.55382695
      3.39000000	     -5.95962865	     -1.00490322	      3.40592109	     -0.17228082	     -0.03485965	     -0.14610301	     34.99509208	      4.58763077	      3.19936991	    -25.18546457	     -6.00975122	      5.52684607	      9.43413713	     -3.19450650	     -1.56893708	    -10.83072187	    -38.11736602	    -14.55848875	     20.77640267	     27.07313166	      7.03788834	     -1.07199801	     -9.38187423
      3.39500000	     -6.02087213	     -1.42291102	      3.26318849	     -0.16478128	     -0.03507924	     -0.14527926	     34.84308694	      5.31538255	      3.67080269	    -25.72297413	     -6.26486406	      4.83603636	      9.24134473	     -2.40414073	     -2.33137440	    -10.95548709	    -39.71971773	    -17.34799407	     19.76629118	     26.65333031	      7.25390410	     -0.59028987	     -9.16472223
      3.40000000	     -6.07710299	     -1.86852587	      3.09433251	     -0.15733611	     -0.03533766	     -0.14439542	     34.66036044	      6.07941419	      4.07530320	    -26.20602348	     -6.45416420	      4.12063401	      9.10706065	     -1.57677543	     -3.12423343	    -11.10277212	    -41.33835523	    -20.12808223	     18.53060024	     26.05907032	      7.45851226	     -0.08140443	     -8.92970822
      3.40500000	     -6.10747159	     -2.37907350	      2.91965407	     -0.14987103	     -0.03561185	     -0.14350689	     34.39964828	      6.89724376	      4.38260608	    -26.60175746	     -6.50789742	      3.46330311	      9.04528262	     -0.74216383	     -3.99063891	    -11.27193411	    -42.98147971	    -22.79142180	     17.05000212	     25.20253345	      7.64762377	      0.49236680	     -8.70051542
      3.41000000	     -6.26179795	     -2.78838855	      2.62933222	     -0.14260694	     -0.03601895	     -0.14245355	     34.27716811	      7.68779370	      4.85006773	    -26.95620243	     -6.79524537	      2.54026704	      9.39798280	      0.28575425	     -4.70466858	    -11.42732007	    -44.77838132	    -24.92907758	     15.56325625	     22.48213629	      7.93146548	      0.96866489	     -8.31409922
      3.41500000	     -6.27943365	     -3.27103255	      2.40426208	     -0.13539599	     -0.03625241	     -0.14152959	     33.94720628	      8.49379575	      5.14904459	    -27.22171729	     -6.85077391	      1.81400430	      9.60869024	      1.20852773	     -5.49466987	    -11.53345010	    -46.57729715	    -26.82331399	     13.82766198	     19.56785078	      8.05750035	      1.51998009	     -8.03400186
